<svg width="58" height="75" viewBox="0 0 58 75" fill="none" xmlns="http://www.w3.org/2000/svg">
<path d="M1 75V68.9592C1 61.4171 8.37992 55.3673 15.7368 55.3673C24.5789 62.9184 33.4211 62.9184 42.2632 55.3673C49.6229 55.3673 57 61.4171 57 68.9592V75" fill="#92D3F5"/>
<path d="M14.2658 41.7755C8.37109 41.7755 8.37109 32.7143 8.37109 22.1428C8.37109 11.5714 14.2658 0.999985 29.0027 0.999985C43.7395 0.999985 49.6343 11.5714 49.6343 22.1428C49.6343 32.7143 49.6343 41.7755 43.7395 41.7755" fill="#F1B31C"/>
<path d="M12.6953 29.6939C12.6953 43.2857 19.9702 50.8367 28.9058 50.8367C37.6544 50.8367 45.2099 43.2857 45.2099 29.6939C45.2099 25.1632 43.7363 22.1421 43.7363 22.1421C39.3152 17.6122 33.4205 10.0605 33.4205 10.0605C27.5257 14.5911 23.1047 19.1217 14.2626 20.6326C14.2626 20.6326 12.6953 22.1421 12.6953 29.6939Z" fill="#FCEA2B"/>
<path d="M14.26 41.7755C8.36523 41.7755 8.36523 32.7143 8.36523 22.1429C8.36523 11.5714 14.26 1 28.9968 1C43.7337 1 49.6284 11.5714 49.6284 22.1429C49.6284 32.7143 49.6284 41.7755 43.7337 41.7755" stroke="black" stroke-width="2" stroke-linecap="round" stroke-linejoin="round"/>
<path d="M1 73.4898V68.9592C1 61.4171 8.37992 55.3673 15.7368 55.3673C24.5789 62.9184 33.4211 62.9184 42.2632 55.3673C49.6229 55.3673 57 61.4171 57 68.9592V73.4898" stroke="black" stroke-width="2" stroke-linecap="round" stroke-linejoin="round"/>
<path d="M37.065 27.8816C37.065 29.3828 35.8773 30.6 34.4124 30.6C32.9476 30.6 31.7598 29.3828 31.7598 27.8816C31.7598 26.3804 32.9476 25.1633 34.4124 25.1633C35.8773 25.1633 37.065 26.3804 37.065 27.8816Z" fill="black"/>
<path d="M25.2779 27.8816C25.2779 29.3828 24.0902 30.6 22.6253 30.6C21.1605 30.6 19.9727 29.3828 19.9727 27.8816C19.9727 26.3804 21.1605 25.1633 22.6253 25.1633C24.0902 25.1633 25.2779 26.3804 25.2779 27.8816Z" fill="black"/>
<path d="M12.6953 29.6939C12.6953 43.2857 19.9702 50.8367 28.9058 50.8367C37.6544 50.8367 45.21 43.2857 45.21 29.6939C45.21 25.1633 43.7363 22.1421 43.7363 22.1421C39.3152 17.6122 33.4205 10.0605 33.4205 10.0605C27.5257 14.5911 23.1047 19.1217 14.2626 20.6327C14.2626 20.6327 12.6953 22.1421 12.6953 29.6939Z" stroke="black" stroke-width="2" stroke-linejoin="round"/>
<path d="M24.5801 40.2653C27.4368 41.6826 30.4748 41.7755 33.4222 40.2653" stroke="black" stroke-width="2" stroke-linecap="round" stroke-linejoin="round"/>
</svg>
