<svg width="115" height="107" viewBox="0 0 115 107" fill="none" xmlns="http://www.w3.org/2000/svg">
<path d="M9.71046 55.089C4.13325 49.1473 1 41.0887 1 32.6859C1 24.2831 4.13325 16.2244 9.71046 10.2828C15.2877 4.34108 22.852 1.00308 30.7394 1.00308C38.6268 1.00308 46.1911 4.34108 51.7683 10.2828L57.4986 16.3875L63.2288 10.2828C65.9899 7.33986 69.2682 5.00533 72.8764 3.41257C76.4846 1.8198 80.352 1 84.2577 1C88.1634 1 92.0308 1.8198 95.639 3.41257C99.2473 5.00533 102.526 7.33986 105.287 10.2828C108.049 13.2243 110.24 16.7168 111.735 20.5608C113.23 24.4048 114 28.525 114 32.6859C114 36.8468 113.23 40.967 111.735 44.811C110.24 48.655 108.049 52.1475 105.287 55.089M81.3926 80.5445L57.4986 106L33.0515 80.5445" stroke="white" stroke-width="2" stroke-linecap="round" stroke-linejoin="round"/>
</svg>
