<svg width="49" height="43" viewBox="0 0 49 43" fill="none" xmlns="http://www.w3.org/2000/svg">
<path d="M4.62294 22.1205C2.30321 19.8004 1 16.6537 1 13.3726C1 10.0915 2.30321 6.94478 4.62294 4.6247C6.94266 2.30461 10.0889 1.0012 13.3695 1.0012C16.6501 1.0012 19.7963 2.30461 22.116 4.6247L24.4994 7.00844L26.8828 4.6247C28.0312 3.47556 29.3947 2.56399 30.8955 1.94205C32.3963 1.32011 34.0048 1 35.6293 1C37.2538 1 38.8624 1.32011 40.3631 1.94205C41.8639 2.56399 43.2274 3.47556 44.3759 4.6247C45.5248 5.77329 46.4362 7.13704 47.0581 8.63803C47.6799 10.139 48 11.7478 48 13.3726C48 14.9973 47.6799 16.6061 47.0581 18.1071C46.4362 19.6081 45.5248 20.9719 44.3759 22.1205M34.4376 32.0602L24.4994 42L14.3311 32.0602" stroke="white" stroke-width="2" stroke-linecap="round" stroke-linejoin="round"/>
</svg>
