<svg width="23" height="23" viewBox="0 0 23 23" fill="none" xmlns="http://www.w3.org/2000/svg">
<path fill-rule="evenodd" clip-rule="evenodd" d="M1.27778 0C0.93889 0 0.613882 0.134728 0.374252 0.374545C0.134623 0.614362 0 0.939623 0 1.27878V11.509C0 12.2762 0.511111 12.7878 1.27778 12.7878H2.55556V15.3453C2.55907 15.5956 2.6359 15.8394 2.77654 16.0464C2.91717 16.2534 3.11541 16.4145 3.34669 16.5098C3.57797 16.6051 3.83212 16.6304 4.07762 16.5825C4.32312 16.5346 4.54918 16.4157 4.72778 16.2404L8.17778 12.7878H15.3333C16.1 12.7878 16.6111 12.2762 16.6111 11.509V1.27878C16.6111 0.51151 16.1 0 15.3333 0H1.27778Z" fill="white"/>
<path fill-rule="evenodd" clip-rule="evenodd" d="M6.38889 18.1586H6.51667L9.2 15.3453H15.3333C16.35 15.3453 17.325 14.9411 18.0439 14.2217C18.7628 13.5022 19.1667 12.5264 19.1667 11.509V6.39388H21.7222C22.4889 6.39388 23 6.90539 23 7.67265V17.9029C23 18.6701 22.4889 19.1816 21.7222 19.1816H20.4444V21.7392C20.4409 21.9895 20.3641 22.2332 20.2235 22.4402C20.0828 22.6472 19.8846 22.8084 19.6533 22.9037C19.422 22.999 19.1679 23.0243 18.9224 22.9764C18.6769 22.9285 18.4508 22.8096 18.2722 22.6343L14.8222 19.1816H7.66667C7.36774 19.1877 7.07616 19.0886 6.84268 18.9017C6.60921 18.7148 6.44863 18.4518 6.38889 18.1586Z" fill="white"/>
</svg>
