<svg width="22" height="22" viewBox="0 0 22 22" fill="none" xmlns="http://www.w3.org/2000/svg">
<path d="M5.5 8.5C5.23478 8.5 4.98043 8.60536 4.79289 8.79289C4.60536 8.98043 4.5 9.23478 4.5 9.5C4.5 9.76522 4.60536 10.0196 4.79289 10.2071C4.98043 10.3946 5.23478 10.5 5.5 10.5C5.76522 10.5 6.01957 10.3946 6.20711 10.2071C6.39464 10.0196 6.5 9.76522 6.5 9.5C6.5 9.23478 6.39464 8.98043 6.20711 8.79289C6.01957 8.60536 5.76522 8.5 5.5 8.5ZM4.5 16.5C4.5 16.2348 4.60536 15.9804 4.79289 15.7929C4.98043 15.6054 5.23478 15.5 5.5 15.5C5.76522 15.5 6.01957 15.6054 6.20711 15.7929C6.39464 15.9804 6.5 16.2348 6.5 16.5C6.5 16.7652 6.39464 17.0196 6.20711 17.2071C6.01957 17.3946 5.76522 17.5 5.5 17.5C5.23478 17.5 4.98043 17.3946 4.79289 17.2071C4.60536 17.0196 4.5 16.7652 4.5 16.5ZM0 3.75C0 2.75544 0.395088 1.80161 1.09835 1.09835C1.80161 0.395088 2.75544 0 3.75 0H18.25C19.2446 0 20.1984 0.395088 20.9017 1.09835C21.6049 1.80161 22 2.75544 22 3.75V18.25C22 19.2446 21.6049 20.1984 20.9017 20.9017C20.1984 21.6049 19.2446 22 18.25 22H3.75C2.75544 22 1.80161 21.6049 1.09835 20.9017C0.395088 20.1984 0 19.2446 0 18.25V3.75ZM3 9.5C3 10.163 3.26339 10.7989 3.73223 11.2678C4.20107 11.7366 4.83696 12 5.5 12C6.16304 12 6.79893 11.7366 7.26777 11.2678C7.73661 10.7989 8 10.163 8 9.5C8 8.83696 7.73661 8.20107 7.26777 7.73223C6.79893 7.26339 6.16304 7 5.5 7C4.83696 7 4.20107 7.26339 3.73223 7.73223C3.26339 8.20107 3 8.83696 3 9.5ZM5.5 14C4.83696 14 4.20107 14.2634 3.73223 14.7322C3.26339 15.2011 3 15.837 3 16.5C3 17.163 3.26339 17.7989 3.73223 18.2678C4.20107 18.7366 4.83696 19 5.5 19C6.16304 19 6.79893 18.7366 7.26777 18.2678C7.73661 17.7989 8 17.163 8 16.5C8 15.837 7.73661 15.2011 7.26777 14.7322C6.79893 14.2634 6.16304 14 5.5 14ZM10 9.25C10 9.664 10.336 10 10.75 10H18.25C18.4489 10 18.6397 9.92098 18.7803 9.78033C18.921 9.63968 19 9.44891 19 9.25C19 9.05109 18.921 8.86032 18.7803 8.71967C18.6397 8.57902 18.4489 8.5 18.25 8.5H10.75C10.5511 8.5 10.3603 8.57902 10.2197 8.71967C10.079 8.86032 10 9.05109 10 9.25ZM10.75 15.5C10.5511 15.5 10.3603 15.579 10.2197 15.7197C10.079 15.8603 10 16.0511 10 16.25C10 16.4489 10.079 16.6397 10.2197 16.7803C10.3603 16.921 10.5511 17 10.75 17H18.25C18.4489 17 18.6397 16.921 18.7803 16.7803C18.921 16.6397 19 16.4489 19 16.25C19 16.0511 18.921 15.8603 18.7803 15.7197C18.6397 15.579 18.4489 15.5 18.25 15.5H10.75ZM3 3.75C3 4.164 3.336 4.5 3.75 4.5H18.25C18.4489 4.5 18.6397 4.42098 18.7803 4.28033C18.921 4.13968 19 3.94891 19 3.75C19 3.55109 18.921 3.36032 18.7803 3.21967C18.6397 3.07902 18.4489 3 18.25 3H3.75C3.55109 3 3.36032 3.07902 3.21967 3.21967C3.07902 3.36032 3 3.55109 3 3.75Z" fill="white"/>
</svg>
