<svg width="90" height="90" viewBox="0 0 90 90" fill="none" xmlns="http://www.w3.org/2000/svg">
<circle cx="45" cy="45" r="45" fill="#C5C5C5"/>
<path d="M18.2374 80.6312C18.2374 80.6312 15.3076 59.6698 32.0494 59.6698C36.5042 62.6649 40.458 65.0143 44.7453 65.0058L45.1304 65.1465C49.4191 65.1549 53.373 62.5242 57.8263 59.5305C73.9598 59.4813 71.0928 80.4919 71.4151 80.6326" fill="white"/>
<path d="M29.3526 79.1189C31.6642 79.1189 33.5381 77.2293 33.5381 74.8985C33.5381 72.5676 31.6642 70.678 29.3526 70.678C27.041 70.678 25.1672 72.5676 25.1672 74.8985C25.1672 77.2293 27.041 79.1189 29.3526 79.1189Z" fill="#9B9B9A"/>
<path d="M57.9016 59.5123C53.479 62.4848 50.5422 64.4361 44.8751 65.2647C63.0986 65.8429 62.959 74.9871 64.0222 80.6143H71.1556C71.1556 80.6143 74.8025 59.5094 57.9016 59.5123Z" fill="#D0CFCE"/>
<path d="M32.2071 21.3401V10.1279C32.2071 10.1279 41.5825 10.4936 45.0285 6.4139C48.4746 10.4936 57.85 10.1279 57.85 10.1279V21.2979L45.196 20.0599L32.2071 21.3401Z" fill="white"/>
<path d="M42.2661 14.918H44.278V16.9466H45.694V14.918H47.7058V13.4901H45.694V11.4615H44.278V13.4901H42.2661V14.918Z" fill="#D22F27"/>
<path d="M60.7826 36.1664C58.2044 36.5406 57.4384 29.1324 57.4384 29.1324C56.9027 36.6869 49.341 28.4472 49.341 28.4472C50.5631 33.2585 42.1922 27.6369 42.1922 27.6369C44.197 31.9235 35.7647 26.2794 35.7647 26.2794C35.7647 26.2794 31.9546 34.8257 29.3135 36.0932C29.2954 36.4913 29.2661 36.8867 29.2661 37.2918C29.2661 48.3043 36.3479 57.2304 45.0844 57.2304C53.8208 57.2304 60.904 48.3043 60.904 37.2918C60.904 36.8557 60.8733 36.4308 60.8524 36.0032C60.8259 36.058 60.8105 36.1129 60.7826 36.1664Z" fill="#FCEA2B"/>
<path d="M60.9207 35.8667C60.8789 35.9652 60.8231 36.0637 60.7812 36.1621C58.2002 36.542 57.4328 29.1281 57.4328 29.1281C56.9027 36.6827 49.341 28.4529 49.341 28.4529C50.5687 33.2641 42.1978 27.6369 42.1978 27.6369C44.1929 31.9277 35.7661 26.2864 35.7661 26.2864C35.7661 26.2864 31.8457 35.0789 29.2089 36.1481C29.195 36.1481 29.195 36.1621 29.181 36.1621C28.9857 35.6979 28.8183 35.2337 28.6788 34.7835C27.9885 32.8053 27.8446 30.6752 28.2624 28.621C28.6802 26.5667 29.6439 24.6656 31.0505 23.1211C30.9679 23.0014 30.9065 22.8681 30.8691 22.7272C30.8207 22.5343 30.8065 22.3342 30.8273 22.1363C30.8273 22.1082 30.8133 22.066 30.8133 22.0378V19.801C31.6086 18.7881 30.9947 19.1398 32.055 18.6475L32.7805 21.1938L33.6036 20.5044C41.0884 18.4809 48.969 18.4761 56.4562 20.4904V18.3098C57.4875 19.3026 58.4133 20.4012 59.2186 21.5877C59.2326 21.6017 59.2326 21.6158 59.2465 21.6299C60.1895 22.9921 60.9319 24.4847 61.4509 26.0613C62.5414 29.2755 62.3513 32.7911 60.9207 35.8667Z" fill="#A57939"/>
<path d="M58.814 9.10933C58.6791 8.9791 58.5191 8.87819 58.3439 8.81285C58.1687 8.74752 57.9821 8.71914 57.7956 8.7295C57.6003 8.7295 57.3631 8.74356 57.098 8.74356C54.3077 8.7295 48.4481 8.18084 46.1461 5.56419C46.0875 5.47929 46.017 5.40346 45.9368 5.3391C45.7919 5.21233 45.6201 5.12087 45.4345 5.07181C45.3828 5.04472 45.3254 5.03026 45.2671 5.0296C45.1904 5.0056 45.11 4.99606 45.0299 5.00147C44.9499 4.99692 44.8696 5.00644 44.7928 5.0296C44.7345 5.03026 44.6771 5.04472 44.6253 5.07181C44.3664 5.14336 44.1368 5.29609 43.9696 5.50792C43.9557 5.52199 43.9417 5.55012 43.9138 5.56419C42.447 6.93739 40.6048 7.83434 38.6262 8.13864C36.7572 8.52302 34.8553 8.72092 32.9479 8.7295C32.6968 8.7295 32.4596 8.7295 32.2643 8.71543C31.8827 8.70774 31.5129 8.84884 31.2319 9.10933C30.9651 9.37789 30.8146 9.74208 30.8133 10.1222V22.0378C30.8133 22.066 30.8273 22.1082 30.8273 22.1363C30.8065 22.3342 30.8207 22.5343 30.8691 22.7272C30.9065 22.8681 30.9679 23.0014 31.0505 23.1211C31.1805 23.31 31.3535 23.4647 31.555 23.5724C31.7564 23.6801 31.9805 23.7376 32.2085 23.7401C32.3461 23.7373 32.4825 23.7135 32.6131 23.6697C40.6957 21.137 49.3502 21.137 57.4328 23.6697C57.7439 23.7671 58.0789 23.7515 58.3797 23.6255C58.6805 23.4996 58.928 23.2713 59.0791 22.9804C59.1201 22.9094 59.1529 22.8339 59.1768 22.7553C59.2043 22.6738 59.2184 22.5882 59.2186 22.5021C59.2396 22.3811 59.2396 22.2573 59.2186 22.1363C59.2361 22.1064 59.2457 22.0725 59.2465 22.0378V10.1222C59.2465 9.93263 59.2081 9.74502 59.1337 9.57088C59.0594 9.39673 58.9506 9.23969 58.814 9.10933ZM56.4562 20.4904C48.969 18.4761 41.0884 18.4809 33.6036 20.5044V11.529C33.9106 11.529 34.2733 11.515 34.664 11.4868C37.5101 11.318 42.142 10.685 45.0299 8.33559C47.9179 10.685 52.5498 11.318 55.3959 11.4868C55.7866 11.515 56.1493 11.529 56.4562 11.529V20.4904Z" fill="black"/>
<path d="M45.694 11.4615V13.4901H47.7058V14.918H45.694V16.9466H44.278L44.278 14.9194H42.2661V13.4901H44.278L44.278 11.4629L45.694 11.4615ZM45.694 10.0547H44.278C43.9079 10.0547 43.5531 10.2029 43.2914 10.4667C43.0298 10.7306 42.8828 11.0884 42.8828 11.4615V12.0833H42.2661C41.8961 12.0833 41.5413 12.2315 41.2796 12.4954C41.018 12.7592 40.871 13.117 40.871 13.4901V14.918C40.871 15.2911 41.018 15.649 41.2796 15.9128C41.5413 16.1766 41.8961 16.3248 42.2661 16.3248H42.8828V16.9466C42.8828 17.3197 43.0298 17.6776 43.2914 17.9414C43.5531 18.2052 43.9079 18.3534 44.278 18.3534H45.694C46.0641 18.3534 46.4189 18.2052 46.6806 17.9414C46.9422 17.6776 47.0892 17.3197 47.0892 16.9466V16.3248H47.7058C48.0759 16.3248 48.4307 16.1766 48.6924 15.9128C48.954 15.649 49.101 15.2911 49.101 14.918V13.4901C49.101 13.117 48.954 12.7592 48.6924 12.4954C48.4307 12.2315 48.0759 12.0833 47.7058 12.0833H47.0892V11.4615C47.0892 11.0884 46.9422 10.7306 46.6806 10.4667C46.4189 10.2029 46.0641 10.0547 45.694 10.0547ZM53.5432 35.8808C53.5432 36.4373 53.3795 36.9812 53.0729 37.4439C52.7663 37.9066 52.3305 38.2673 51.8207 38.4802C51.3108 38.6932 50.7498 38.7489 50.2085 38.6403C49.6672 38.5318 49.17 38.2638 48.7798 37.8703C48.3896 37.4768 48.1238 36.9755 48.0162 36.4297C47.9085 35.8839 47.9638 35.3182 48.1749 34.8041C48.3861 34.2899 48.7438 33.8505 49.2026 33.5414C49.6615 33.2322 50.201 33.0672 50.7529 33.0672C51.4929 33.0672 52.2026 33.3636 52.7259 33.8913C53.2492 34.4189 53.5432 35.1346 53.5432 35.8808ZM42.3819 35.8808C42.3819 36.4373 42.2183 36.9812 41.9117 37.4439C41.6051 37.9066 41.1693 38.2673 40.6594 38.4802C40.1496 38.6932 39.5885 38.7489 39.0473 38.6403C38.506 38.5318 38.0088 38.2638 37.6186 37.8703C37.2284 37.4768 36.9626 36.9755 36.8549 36.4297C36.7473 35.8839 36.8025 35.3182 37.0137 34.8041C37.2249 34.2899 37.5826 33.8505 38.0414 33.5414C38.5003 33.2322 39.0398 33.0672 39.5916 33.0672C40.3317 33.0672 41.0414 33.3636 41.5647 33.8913C42.088 34.4189 42.3819 35.1346 42.3819 35.8808ZM45.1709 49.953C43.4961 49.9366 41.8487 49.5232 40.3618 48.746C40.1978 48.6633 40.0516 48.5489 39.9314 48.4092C39.8113 48.2696 39.7197 48.1074 39.6617 47.9321C39.6037 47.7567 39.5806 47.5715 39.5936 47.3871C39.6066 47.2027 39.6554 47.0227 39.7374 46.8574C39.8194 46.692 39.9329 46.5446 40.0714 46.4235C40.2099 46.3023 40.3707 46.2099 40.5446 46.1514C40.7185 46.093 40.9022 46.0696 41.0851 46.0827C41.2679 46.0959 41.4464 46.1451 41.6104 46.2278C42.7047 46.8228 43.9284 47.1343 45.1715 47.1343C46.4147 47.1343 47.6384 46.8228 48.7327 46.2278C48.8966 46.1451 49.0752 46.0959 49.258 46.0827C49.4409 46.0696 49.6245 46.093 49.7985 46.1514C49.9724 46.2099 50.1332 46.3023 50.2717 46.4235C50.4102 46.5446 50.5237 46.692 50.6057 46.8574C50.6877 47.0227 50.7365 47.2027 50.7495 47.3871C50.7625 47.5715 50.7394 47.7567 50.6814 47.9321C50.6234 48.1074 50.5318 48.2696 50.4117 48.4092C50.2915 48.5489 50.1453 48.6633 49.9813 48.746C48.4938 49.5228 46.8459 49.9358 45.1709 49.9516" fill="black"/>
<path d="M45.1709 59.1423C35.6796 59.1423 27.9575 49.5662 27.9575 37.7954L27.79 35.8653C27.7743 35.6812 27.7948 35.4958 27.8502 35.3197C27.9055 35.1435 27.9948 34.9801 28.1128 34.8387C28.2308 34.6974 28.3753 34.5809 28.538 34.4958C28.7007 34.4108 28.8784 34.3589 29.061 34.3432C29.244 34.3256 29.4285 34.345 29.6039 34.4003C29.7793 34.4556 29.942 34.5456 30.0824 34.6651C30.2229 34.7846 30.3383 34.9312 30.4219 35.0962C30.5054 35.2612 30.5555 35.4414 30.5692 35.6262L30.7422 37.6759C30.7478 48.0159 37.2185 56.3287 45.1709 56.3287C53.1232 56.3287 59.5953 48.0145 59.5953 37.7954C59.5953 37.1389 59.5688 36.4895 59.5158 35.847C59.5012 35.6628 59.5226 35.4775 59.579 35.3017C59.6353 35.1259 59.7255 34.963 59.8443 34.8223C59.9631 34.6816 60.1082 34.5659 60.2714 34.4817C60.4345 34.3976 60.6125 34.3467 60.7952 34.3319C60.9778 34.3171 61.1616 34.3388 61.336 34.3956C61.5103 34.4524 61.6719 34.5433 61.8114 34.6631C61.9509 34.7829 62.0657 34.9292 62.1492 35.0938C62.2326 35.2583 62.2831 35.4377 62.2977 35.6219C62.3554 36.3366 62.3847 37.0611 62.3856 37.7954C62.3856 49.5662 54.6649 59.1423 45.1709 59.1423Z" fill="black"/>
<path d="M60.5901 37.583C59.969 37.5786 59.3676 37.3625 58.8838 36.9697C57.8718 35.9828 57.1636 34.7226 56.8441 33.3401C56.697 33.4199 56.544 33.4881 56.3865 33.5441C54.3412 34.2658 51.8606 32.6522 50.1278 31.1596C50.0548 31.2275 49.9775 31.2904 49.8962 31.3481C48.4313 32.3961 45.8168 31.4212 43.3948 30.0355C43.3499 30.0841 43.3024 30.1301 43.2525 30.1734C42.7489 30.6137 41.6104 31.5985 36.3577 28.3361C34.9458 31.2777 32.2113 36.383 29.7865 37.4283C29.4414 37.585 29.0487 37.5976 28.6944 37.4631C28.3401 37.3286 28.0531 37.0581 27.8961 36.7108C27.689 36.2174 27.506 35.7141 27.3478 35.2027C26.5812 32.9836 26.4276 30.596 26.9034 28.2956C27.3792 25.9952 28.4664 23.8685 30.0488 22.1434C30.3789 21.7944 30.7332 21.4695 31.1091 21.1713C31.4005 20.9455 31.7685 20.8448 32.1331 20.8911C32.4977 20.9373 32.8295 21.1267 33.0564 21.4181C33.2833 21.7096 33.387 22.0795 33.345 22.4476C33.3031 22.8157 33.1187 23.1523 32.8321 23.3842C32.5587 23.6014 32.3009 23.8378 32.0606 24.0918C30.8885 25.3787 30.0688 26.951 29.6818 28.6542C29.2948 30.3573 29.354 32.1327 29.8535 33.8058C31.7037 31.2958 33.2607 28.5792 34.4937 25.7096C34.5768 25.5235 34.699 25.3578 34.8519 25.224C35.0047 25.0903 35.1846 24.9917 35.3791 24.9351C35.5736 24.8784 35.7779 24.8652 35.978 24.8962C36.178 24.9272 36.369 25.0017 36.5376 25.1145C37.8925 26.0329 39.3204 26.8366 40.8068 27.5173C40.8274 27.2738 40.9107 27.0398 41.0483 26.8386C41.1859 26.6373 41.3731 26.4757 41.5915 26.3696C41.8099 26.2635 42.052 26.2167 42.2938 26.2337C42.5357 26.2506 42.769 26.3309 42.9707 26.4665C44.5164 27.5617 46.2223 28.4066 48.0267 28.9706C48.0163 28.9143 48.0037 28.8585 47.9891 28.8032C47.9116 28.4999 47.9367 28.1793 48.0603 27.8921C48.184 27.6049 48.3991 27.3675 48.6717 27.2174C48.9443 27.0674 49.2587 27.0134 49.5651 27.0639C49.8716 27.1144 50.1526 27.2665 50.3636 27.4962C52.2192 29.5122 54.6802 31.1638 55.4587 30.8909C55.6192 30.8346 55.9456 30.3717 56.0405 29.0283C56.0652 28.6777 56.2193 28.3491 56.4724 28.1075C56.7255 27.8658 57.0592 27.7285 57.4077 27.7227C57.7551 27.7219 58.0907 27.8497 58.351 28.0817C58.6112 28.3138 58.778 28.6341 58.8196 28.9818C58.9763 30.8362 59.4571 32.6479 60.2399 34.3333C60.8331 33.147 61.1391 31.8359 61.1328 30.5073C61.1265 29.1788 60.8081 27.8707 60.2036 26.6901C59.7138 25.684 59.0265 24.7885 58.1834 24.058C57.9916 23.895 57.7898 23.7441 57.5793 23.6064C57.4245 23.5076 57.2905 23.379 57.185 23.2279C57.0795 23.0769 57.0045 22.9063 56.9643 22.7261C56.9242 22.5458 56.9196 22.3593 56.9509 22.1773C56.9823 21.9952 57.0488 21.8212 57.1468 21.665C57.2449 21.5089 57.3724 21.3738 57.5222 21.2674C57.672 21.161 57.8411 21.0854 58.0199 21.0449C58.1987 21.0044 58.3836 20.9998 58.5642 21.0314C58.7447 21.063 58.9173 21.1301 59.0722 21.2289C59.3838 21.4323 59.6829 21.6545 59.9678 21.8944C62.0382 23.6932 63.3927 26.187 63.781 28.9148C64.1693 31.6426 63.5651 34.4199 62.0801 36.7333L61.9922 36.867C61.7538 37.2161 61.3936 37.4618 60.9835 37.5549C60.8532 37.5737 60.7217 37.5831 60.5901 37.583ZM29.3526 80.5257C28.2489 80.5257 27.1699 80.1956 26.2522 79.5773C25.3345 78.959 24.6192 78.0801 24.1968 77.0519C23.7744 76.0237 23.6639 74.8922 23.8792 73.8007C24.0946 72.7091 24.6261 71.7064 25.4065 70.9194C26.187 70.1324 27.1814 69.5965 28.2639 69.3794C29.3464 69.1622 30.4685 69.2737 31.4882 69.6996C32.5079 70.1255 33.3795 70.8468 33.9927 71.7721C34.6059 72.6975 34.9332 73.7855 34.9332 74.8985C34.9317 76.3904 34.3433 77.8209 33.2971 78.8759C32.2508 79.9308 30.8322 80.5242 29.3526 80.5257ZM29.3526 72.0849C28.8007 72.0849 28.2613 72.2499 27.8024 72.559C27.3435 72.8682 26.9859 73.3076 26.7747 73.8217C26.5635 74.3359 26.5083 74.9016 26.6159 75.4474C26.7236 75.9932 26.9893 76.4945 27.3796 76.888C27.7698 77.2815 28.267 77.5494 28.8083 77.658C29.3495 77.7666 29.9106 77.7109 30.4204 77.4979C30.9303 77.2849 31.3661 76.9243 31.6727 76.4616C31.9793 75.9989 32.1429 75.4549 32.1429 74.8985C32.1418 74.1526 31.8475 73.4376 31.3244 72.9102C30.8014 72.3828 30.0923 72.086 29.3526 72.0849Z" fill="black"/>
<path d="M29.3526 72.0849C29.0403 72.0843 28.7358 71.9781 28.4904 71.7832C28.245 71.5883 28.0716 71.3161 27.9979 71.0101C27.9142 70.6654 26.0266 62.513 31.5277 56.7563C31.6549 56.6233 31.8069 56.5169 31.9749 56.4431C32.143 56.3693 32.3238 56.3296 32.507 56.3263C32.6903 56.3229 32.8724 56.356 33.0429 56.4237C33.2135 56.4913 33.3692 56.5922 33.5011 56.7205C33.633 56.8488 33.7386 57.002 33.8118 57.1714C33.8849 57.3409 33.9243 57.5232 33.9276 57.708C33.9309 57.8928 33.8981 58.0764 33.831 58.2484C33.7639 58.4204 33.6639 58.5774 33.5367 58.7104C29.0889 63.3627 30.692 70.2757 30.7087 70.3446C30.7586 70.5518 30.7611 70.7676 30.7162 70.9759C30.6712 71.1841 30.5799 71.3793 30.4492 71.5468C30.3184 71.7143 30.1517 71.8496 29.9615 71.9426C29.7713 72.0355 29.564 72.0851 29.3526 72.0849ZM71.4234 80.6903C71.2221 80.6915 71.0229 80.6486 70.8396 80.5645C70.6563 80.4804 70.4934 80.3571 70.362 80.2033C70.2306 80.0494 70.134 79.8686 70.0788 79.6733C70.0236 79.4781 70.0111 79.273 70.0422 79.0724C70.059 78.9599 71.6606 67.6408 64.0249 63.7721C63.8612 63.6891 63.7152 63.5744 63.5953 63.4346C63.4755 63.2948 63.3841 63.1325 63.3265 62.957C63.2688 62.7816 63.246 62.5964 63.2593 62.4121C63.2726 62.2278 63.3218 62.0479 63.4041 61.8827C63.4864 61.7176 63.6001 61.5704 63.7388 61.4495C63.8774 61.3287 64.0384 61.2365 64.2124 61.1784C64.3863 61.1203 64.57 61.0973 64.7528 61.1107C64.9356 61.1241 65.114 61.1737 65.2778 61.2567C74.7369 66.0483 72.8828 78.9515 72.8004 79.4987C72.7495 79.8303 72.5828 80.1326 72.3303 80.3511C72.0778 80.5695 71.7562 80.6898 71.4234 80.6903ZM45.0551 67.4565H44.91L44.8528 67.4551C41.5435 67.41 38.3318 66.2874 34.1784 63.7313C33.8759 63.531 33.6624 63.2201 33.583 62.8641C33.5036 62.5081 33.5644 62.1349 33.7527 61.8233C33.941 61.5117 34.2419 61.286 34.5921 61.194C34.9423 61.1019 35.3142 61.1506 35.6294 61.3298C39.3754 63.6356 42.1852 64.6288 44.9979 64.6429C48.1364 64.4897 51.1726 63.4681 53.7734 61.69C53.9312 61.5961 54.1058 61.5346 54.2873 61.5088C54.4687 61.483 54.6534 61.4934 54.8308 61.5396C55.0083 61.5858 55.1749 61.6668 55.3213 61.7779C55.4677 61.889 55.591 62.0281 55.684 62.1873C55.7771 62.3465 55.8382 62.5225 55.8638 62.7055C55.8893 62.8884 55.8789 63.0747 55.8331 63.2536C55.7873 63.4325 55.7071 63.6006 55.5968 63.7482C55.4866 63.8958 55.3487 64.0201 55.1908 64.1139C52.2013 66.1137 48.7341 67.2676 45.1513 67.4551L45.0551 67.4565ZM18.5765 80.6903C18.244 80.6895 17.9227 80.5691 17.6705 80.3506C17.4182 80.1321 17.2517 79.83 17.2008 79.4987C17.1129 78.9191 15.1527 65.2422 25.5997 60.8515C25.9412 60.7079 26.3253 60.7069 26.6675 60.8489C27.0098 60.9908 27.2821 61.264 27.4245 61.6084C27.567 61.9528 27.5679 62.3401 27.4272 62.6852C27.2864 63.0303 27.0154 63.3048 26.6739 63.4485C18.2514 66.9894 19.9409 78.9515 19.959 79.0738C19.99 79.2743 19.9773 79.4792 19.922 79.6743C19.8667 79.8694 19.77 80.05 19.6387 80.2037C19.5073 80.3574 19.3445 80.4805 19.1613 80.5646C18.9781 80.6486 18.7777 80.6915 18.5765 80.6903Z" fill="black"/>
<path d="M57.8877 82C57.8402 82 57.7942 81.9972 57.7482 81.993C57.3805 81.9563 57.0424 81.7741 56.8078 81.4864C56.5732 81.1987 56.4613 80.8289 56.4967 80.4581L56.5944 79.4073C56.244 79.2294 55.9294 78.9876 55.6666 78.694C53.765 76.6063 54.2491 71.8119 54.4095 70.5965C54.3858 68.5566 55.2885 65.0621 58.6648 64.0717C58.1519 62.125 57.2566 60.3018 56.0321 58.7104C55.7751 58.4417 55.6345 58.0812 55.6412 57.708C55.6479 57.3348 55.8013 56.9796 56.0677 56.7205C56.3341 56.4613 56.6917 56.3195 57.0618 56.3263C57.4319 56.333 57.7842 56.4877 58.0411 56.7563C60.4938 59.3195 61.7327 64.6738 61.7843 64.9017C61.8301 65.104 61.831 65.3139 61.7868 65.5165C61.7427 65.7191 61.6547 65.9094 61.5291 66.0737C61.4035 66.238 61.2434 66.3722 61.0604 66.4668C60.8773 66.5614 60.6757 66.614 60.4701 66.6208C57.2822 66.7277 57.1887 69.9887 57.2013 70.6415C57.2028 70.7182 57.1981 70.7949 57.1873 70.8708C56.9734 72.4133 56.9823 73.9789 57.2138 75.5189C57.3576 75.3424 57.5427 75.2048 57.7524 75.1186C57.9622 75.0324 58.1899 75.0003 58.415 75.0251C58.7831 75.0607 59.1222 75.2422 59.3576 75.5297C59.593 75.8173 59.7056 76.1873 59.6707 76.5585L59.5102 78.2537C59.5132 78.3231 59.5114 78.3927 59.5047 78.4619L59.2744 80.7353C59.2392 81.0818 59.0778 81.4028 58.8213 81.6361C58.5649 81.8695 58.2317 81.9987 57.8863 81.9986" fill="black"/>
<path d="M63.5269 82C63.1812 81.9997 62.8481 81.87 62.5918 81.636C62.3356 81.4021 62.1747 81.0806 62.1401 80.7339L61.9113 78.4605C61.9046 78.3932 61.9027 78.3255 61.9057 78.2579L61.7453 76.5571C61.7278 76.3732 61.7464 76.1877 61.8 76.0111C61.8536 75.8346 61.9413 75.6704 62.0579 75.528C62.1745 75.3855 62.3178 75.2677 62.4796 75.1812C62.6414 75.0946 62.8186 75.0411 63.0009 75.0237C63.2259 74.9987 63.4534 75.0308 63.663 75.117C63.8725 75.2033 64.0573 75.3409 64.2007 75.5174C64.4318 73.9779 64.4403 72.4128 64.2258 70.8708C64.2151 70.7925 64.2104 70.7135 64.2119 70.6344C64.2258 69.9887 64.131 66.7277 60.9431 66.6208C60.7563 66.6203 60.5715 66.582 60.3998 66.5081C60.228 66.4342 60.0726 66.3263 59.943 66.1908C59.8133 66.0553 59.7119 65.8949 59.6449 65.7191C59.5778 65.5433 59.5465 65.3558 59.5526 65.1676C59.5588 64.9794 59.6024 64.7943 59.6808 64.6234C59.7592 64.4525 59.8708 64.2992 60.0091 64.1726C60.1473 64.046 60.3094 63.9487 60.4856 63.8864C60.6619 63.8241 60.8487 63.7981 61.0351 63.81C65.8303 63.969 67.0301 68.2471 67.0036 70.5965C67.1626 71.8119 67.6482 76.6049 65.748 78.6954C65.4835 78.988 65.1681 79.2293 64.8174 79.4073L64.9164 80.4595C64.9515 80.8301 64.8394 81.1995 64.6049 81.4869C64.3703 81.7743 64.0323 81.9563 63.665 81.993C63.6191 81.9973 63.573 81.9997 63.5269 82ZM44.6951 80.6917C44.4373 80.6917 44.1844 80.6199 43.9645 80.4841C43.7447 80.3483 43.5663 80.1538 43.4492 79.9221L35.5569 64.2602C35.4729 64.0954 35.4221 63.9155 35.4073 63.7309C35.3925 63.5462 35.414 63.3604 35.4706 63.1842C35.5272 63.0079 35.6177 62.8447 35.737 62.7038C35.8564 62.563 36.0021 62.4472 36.1659 62.3633C36.3297 62.2794 36.5083 62.2289 36.6915 62.2148C36.8747 62.2007 37.0588 62.2232 37.2334 62.281C37.4079 62.3388 37.5694 62.4308 37.7086 62.5518C37.8478 62.6727 37.9619 62.8201 38.0444 62.9857L45.9382 78.6476C46.0462 78.8619 46.0979 79.1005 46.0884 79.3407C46.079 79.5809 46.0086 79.8147 45.8841 80.0197C45.7596 80.2247 45.585 80.3941 45.3771 80.5117C45.1692 80.6293 44.9335 80.6913 44.6951 80.6917Z" fill="black"/>
<path d="M44.6923 80.6917C44.4527 80.6916 44.2172 80.6293 44.0084 80.5107C43.7996 80.3922 43.6246 80.2215 43.5003 80.0149C43.376 79.8084 43.3065 79.5731 43.2985 79.3316C43.2905 79.0902 43.3444 78.8507 43.4548 78.6363L51.3486 63.2994C51.5192 62.9682 51.8132 62.719 52.166 62.6065C52.5189 62.4939 52.9016 62.5274 53.23 62.6994C53.5583 62.8714 53.8055 63.1679 53.9171 63.5236C54.0287 63.8794 53.9956 64.2653 53.825 64.5964L45.9326 79.9334C45.8147 80.1623 45.6366 80.3541 45.4179 80.4878C45.1991 80.6216 44.9481 80.6921 44.6923 80.6917Z" fill="black"/>
<circle cx="45" cy="45" r="45" fill="#C5C5C5" fill-opacity="0.7"/>
</svg>
