<svg width="45" height="45" viewBox="0 0 45 45" fill="none" xmlns="http://www.w3.org/2000/svg">
<path d="M22.5 0C34.9268 0 45 10.0732 45 22.5C45 34.9267 34.9268 45 22.5 45C18.5238 45.0064 14.6175 43.9541 11.1825 41.9512L0.00903165 45L3.05103 33.822C1.04649 30.3859 -0.00661134 26.478 3.12305e-05 22.5C3.12305e-05 10.0732 10.0733 0 22.5 0ZM14.832 11.925L14.382 11.943C14.0907 11.9607 13.806 12.0373 13.545 12.168C13.3009 12.3062 13.0781 12.479 12.8835 12.681C12.6135 12.9352 12.4605 13.1557 12.2963 13.3695C11.464 14.4515 11.016 15.7799 11.0228 17.145C11.0273 18.2475 11.3153 19.3207 11.7653 20.3242C12.6855 22.3537 14.1998 24.5025 16.1978 26.4937C16.6793 26.973 17.1518 27.4545 17.6603 27.9022C20.1429 30.088 23.1013 31.6643 26.3003 32.5057L27.5783 32.7015C27.9945 32.724 28.4108 32.6925 28.8293 32.6722C29.4845 32.6384 30.1244 32.461 30.7035 32.1525C30.9982 32.0007 31.2857 31.8355 31.5653 31.6575C31.5653 31.6575 31.662 31.5945 31.8465 31.455C32.1503 31.23 32.337 31.0702 32.589 30.807C32.7758 30.6135 32.9378 30.3862 33.0615 30.1275C33.237 29.7607 33.4125 29.061 33.4845 28.4782C33.5385 28.0327 33.5228 27.7897 33.516 27.639C33.507 27.3982 33.3068 27.1485 33.0885 27.0427L31.779 26.4555C31.779 26.4555 29.8215 25.6027 28.6245 25.0582C28.4993 25.0035 28.365 24.9723 28.2285 24.966C28.0746 24.9502 27.919 24.9675 27.7723 25.0168C27.6256 25.0661 27.4912 25.1462 27.378 25.2517C27.3668 25.2472 27.216 25.3755 25.5893 27.3465C25.4959 27.4719 25.3673 27.5668 25.2198 27.6189C25.0724 27.6709 24.9127 27.678 24.7613 27.639C24.6147 27.5997 24.4711 27.5501 24.3315 27.4905C24.0525 27.3735 23.9558 27.3285 23.7645 27.2475C22.4732 26.684 21.2776 25.9226 20.2208 24.9907C19.9373 24.7432 19.674 24.4732 19.404 24.2122C18.5188 23.3645 17.7474 22.4055 17.109 21.3592L16.9763 21.1455C16.8809 21.0019 16.8038 20.8469 16.7468 20.6842C16.6613 20.3535 16.884 20.088 16.884 20.088C16.884 20.088 17.4308 19.4895 17.685 19.1655C17.9325 18.8505 18.1418 18.5445 18.2768 18.3262C18.5423 17.8987 18.6255 17.46 18.486 17.1202C17.856 15.5812 17.2035 14.049 16.533 12.528C16.4003 12.2265 16.0065 12.0105 15.6488 11.9677C15.5273 11.9542 15.4058 11.9407 15.2843 11.9317C14.9821 11.9167 14.6793 11.9197 14.3775 11.9407L14.832 11.925Z" fill="white"/>
</svg>
