<svg width="189" height="166" viewBox="0 0 189 166" fill="none" xmlns="http://www.w3.org/2000/svg">
<path d="M16.2138 85.4516C7.11384 76.2846 2.00152 63.8515 2.00152 50.8874C2.00152 37.9233 7.11384 25.4902 16.2138 16.3232C25.3138 7.15623 37.6561 2.00627 50.5254 2.00627C63.3947 2.00627 75.737 7.15623 84.8369 16.3232L94.1866 25.7417L103.536 16.3232C108.041 11.7828 113.39 8.18106 119.278 5.72369C125.165 3.26633 131.475 2.00152 137.848 2.00152C144.221 2.00152 150.531 3.26633 156.418 5.72369C162.305 8.18106 167.654 11.7828 172.159 16.3232C176.667 20.8615 180.242 26.2499 182.681 32.1805C185.121 38.1111 186.376 44.4678 186.376 50.8874C186.376 57.307 185.121 63.6637 182.681 69.5943C180.242 75.525 176.667 80.9133 172.159 85.4516M133.173 124.725L94.1866 163.998L54.2978 124.725" stroke="#289976" stroke-width="4" stroke-linecap="round" stroke-linejoin="round"/>
</svg>
