<svg width="24" height="17" viewBox="0 0 24 17" fill="none" xmlns="http://www.w3.org/2000/svg">
<path d="M18 4.85714V2.42857C18 1.78447 17.7471 1.16676 17.2971 0.711312C16.847 0.255866 16.2365 0 15.6 0H2.4C1.76348 0 1.15303 0.255866 0.702944 0.711312C0.252856 1.16676 0 1.78447 0 2.42857V14.5714C0 15.2155 0.252856 15.8332 0.702944 16.2887C1.15303 16.7441 1.76348 17 2.4 17H15.6C16.2365 17 16.847 16.7441 17.2971 16.2887C17.7471 15.8332 18 15.2155 18 14.5714V12.1429L24 17V0L18 4.85714Z" fill="white"/>
</svg>
