<svg width="189" height="166" viewBox="0 0 189 166" fill="none" xmlns="http://www.w3.org/2000/svg">
<path d="M16.2016 85.3869C7.10845 76.2269 2 63.8032 2 50.8489C2 37.8946 7.10845 25.4709 16.2016 16.3109C25.2947 7.15081 37.6275 2.00475 50.4871 2.00475C63.3467 2.00475 75.6796 7.15081 84.7727 16.3109L94.1153 25.7223L103.458 16.3109C107.96 11.7739 113.305 8.17486 119.187 5.71936C125.07 3.26385 131.376 2 137.744 2C144.111 2 150.417 3.26385 156.3 5.71936C162.182 8.17486 167.527 11.7739 172.029 16.3109C176.533 20.8457 180.106 26.23 182.543 32.1561C184.981 38.0823 186.235 44.4342 186.235 50.8489C186.235 57.2636 184.981 63.6155 182.543 69.5416C180.106 75.4678 176.533 80.8521 172.029 85.3869M133.072 124.631L94.1153 163.874L54.2567 124.631" stroke="#289976" stroke-width="4" stroke-linecap="round" stroke-linejoin="round"/>
<path d="M148.201 80.0203H122.704L115.874 61.3051L107.854 82.4508M41.0137 80.0203H68.4788L79.9024 48.6663L90.8399 83.9092" stroke="#289976" stroke-width="3" stroke-linecap="round" stroke-linejoin="round"/>
<path d="M32.0334 114.605C31.3774 113.101 30.7214 111.597 30.0654 110.093C29.4094 108.589 28.7614 107.077 28.1214 105.557C27.9294 105.109 27.7294 104.621 27.5214 104.093C27.3134 103.565 27.1054 103.005 26.8974 102.413C26.6894 101.821 26.4894 101.221 26.2974 100.613C26.2974 101.029 26.2974 101.429 26.2974 101.813C26.2974 102.197 26.2974 102.565 26.2974 102.917C26.2814 103.413 26.2654 103.997 26.2494 104.669C26.2334 105.325 26.2094 106.021 26.1774 106.757C26.1614 107.493 26.1454 108.229 26.1294 108.965C26.1294 109.685 26.1214 110.381 26.1054 111.053C26.1054 111.437 26.0974 111.813 26.0814 112.181C26.0654 112.549 26.0414 112.869 26.0094 113.141C26.2974 113.109 26.6014 113.093 26.9214 113.093C27.2574 113.077 27.5534 113.061 27.8094 113.045V114.365H22.9374V113.309C23.3854 113.293 23.7294 113.205 23.9694 113.045C24.2094 112.885 24.3694 112.645 24.4494 112.325C24.5454 112.005 24.6014 111.613 24.6174 111.149L24.9534 100.781C24.9694 100.429 24.9854 100.077 25.0014 99.7255C25.0174 99.3735 25.0334 99.0615 25.0494 98.7895C24.7614 98.8055 24.4574 98.8215 24.1374 98.8375C23.8174 98.8375 23.5374 98.8455 23.2974 98.8615V97.5655H27.4974L31.4574 107.021C31.6494 107.453 31.8414 107.917 32.0334 108.413C32.2254 108.893 32.4174 109.373 32.6094 109.853C32.8174 110.317 33.0014 110.757 33.1614 111.173H33.2094C33.3854 110.693 33.5854 110.165 33.8094 109.589C34.0334 109.013 34.2254 108.501 34.3854 108.053C35.0734 106.325 35.7694 104.597 36.4734 102.869C37.1934 101.141 37.8974 99.3735 38.5854 97.5655H42.8094V98.6215C42.4254 98.6215 42.0974 98.6935 41.8254 98.8375C41.5694 98.9655 41.3774 99.2055 41.2494 99.5575C41.1374 99.9095 41.0974 100.413 41.1294 101.069L41.6574 111.413C41.6894 111.733 41.6974 112.045 41.6814 112.349C41.6814 112.653 41.6734 112.909 41.6574 113.117C41.9454 113.101 42.2494 113.093 42.5694 113.093C42.9054 113.077 43.1934 113.061 43.4334 113.045V114.365H37.6254V113.309C38.0894 113.293 38.4414 113.197 38.6814 113.021C38.9374 112.845 39.1054 112.573 39.1854 112.205C39.2654 111.821 39.2894 111.325 39.2574 110.717L38.8734 103.733C38.8574 103.493 38.8414 103.213 38.8254 102.893C38.8094 102.557 38.7854 102.213 38.7534 101.861C38.7374 101.493 38.7214 101.141 38.7054 100.805C38.6574 100.917 38.6094 101.037 38.5614 101.165C38.5134 101.277 38.4654 101.405 38.4174 101.549L33.2574 114.605H32.0334ZM53.8865 108.293C53.8865 107.605 53.7825 107.109 53.5745 106.805C53.3825 106.501 53.0865 106.317 52.6865 106.253C52.2865 106.173 51.7905 106.149 51.1985 106.181L49.8065 106.229V111.221C49.8065 111.653 49.7985 112.037 49.7825 112.373C49.7825 112.693 49.7665 112.957 49.7345 113.165L53.8625 113.117C54.4865 113.101 55.0465 112.989 55.5425 112.781C56.0385 112.557 56.4305 112.181 56.7185 111.653C57.0065 111.125 57.1505 110.405 57.1505 109.493H58.2065L58.0625 114.365H45.5825V113.309C46.1105 113.277 46.4865 113.165 46.7105 112.973C46.9505 112.781 47.1025 112.493 47.1665 112.109C47.2305 111.725 47.2625 111.237 47.2625 110.645V100.661C47.2625 100.309 47.2705 99.9735 47.2865 99.6535C47.3025 99.3175 47.3185 99.0295 47.3345 98.7895C47.0625 98.8055 46.7665 98.8215 46.4465 98.8375C46.1265 98.8535 45.8385 98.8695 45.5825 98.8855V97.5655H57.2945L57.4145 101.909H56.3585C56.3585 100.997 56.2065 100.301 55.9025 99.8215C55.6145 99.3415 55.2305 99.0215 54.7505 98.8615C54.2865 98.7015 53.7825 98.6295 53.2385 98.6455L51.5585 98.6935C51.0625 98.6935 50.6865 98.7815 50.4305 98.9575C50.1745 99.1175 50.0065 99.3895 49.9265 99.7735C49.8465 100.141 49.8065 100.645 49.8065 101.285V105.053H53.7665L53.6225 102.989H54.9425V108.293H53.8865ZM59.9117 118.637V113.141H60.8237C61.3677 113.141 61.8397 112.949 62.2397 112.565C62.6397 112.165 62.9837 111.621 63.2717 110.933C63.5597 110.245 63.7997 109.437 63.9917 108.509C64.1837 107.581 64.3277 106.589 64.4237 105.533C64.5357 104.461 64.6157 103.357 64.6637 102.221C64.7277 101.069 64.7597 99.9255 64.7597 98.7895L64.1837 98.8135L62.3837 98.8855V97.5655H75.0557V98.6215C74.5437 98.6375 74.1597 98.7495 73.9037 98.9575C73.6637 99.1495 73.5117 99.4375 73.4477 99.8215C73.3997 100.189 73.3757 100.677 73.3757 101.285V111.149C73.3757 111.581 73.3677 111.973 73.3517 112.325C73.3357 112.661 73.3117 112.933 73.2797 113.141L75.5357 113.093V118.637H74.2877C74.2877 117.293 74.1597 116.245 73.9037 115.493C73.6637 114.741 73.1677 114.365 72.4157 114.365H63.0077C62.2717 114.365 61.7757 114.741 61.5197 115.493C61.2637 116.245 61.1357 117.293 61.1357 118.637H59.9117ZM63.3917 113.141H69.0077C69.5357 113.125 69.9277 113.029 70.1837 112.853C70.4397 112.677 70.6077 112.405 70.6877 112.037C70.7837 111.653 70.8317 111.165 70.8317 110.573V98.7895L67.5197 98.8375C67.0557 98.8535 66.7117 98.9735 66.4877 99.1975C66.2637 99.4055 66.1437 99.7175 66.1277 100.133C66.0957 101.413 66.0157 102.701 65.8877 103.997C65.7757 105.277 65.6157 106.509 65.4077 107.693C65.1997 108.861 64.9357 109.917 64.6157 110.861C64.2957 111.789 63.8877 112.549 63.3917 113.141ZM77.5513 114.365V113.309C78.0793 113.277 78.4553 113.165 78.6793 112.973C78.9193 112.781 79.0713 112.493 79.1353 112.109C79.1993 111.725 79.2313 111.237 79.2313 110.645V100.661C79.2313 100.309 79.2393 99.9735 79.2553 99.6535C79.2713 99.3175 79.2873 99.0295 79.3033 98.7895C79.0313 98.8055 78.7353 98.8215 78.4153 98.8375C78.0953 98.8535 77.8073 98.8695 77.5513 98.8855V97.5655H93.5113V98.6215C92.9993 98.6375 92.6233 98.7495 92.3833 98.9575C92.1433 99.1495 91.9913 99.4375 91.9273 99.8215C91.8633 100.189 91.8313 100.677 91.8313 101.285V111.149C91.8313 111.581 91.8233 111.973 91.8073 112.325C91.8073 112.661 91.7913 112.933 91.7593 113.141C92.0313 113.109 92.3273 113.093 92.6473 113.093C92.9833 113.077 93.2713 113.061 93.5113 113.045V114.365H87.6073V113.309C88.1353 113.277 88.5113 113.165 88.7353 112.973C88.9753 112.781 89.1273 112.493 89.1913 112.109C89.2553 111.725 89.2873 111.237 89.2873 110.645V98.7895L83.4313 98.8855C82.9993 98.9015 82.6633 98.9815 82.4233 99.1255C82.1833 99.2535 82.0153 99.4615 81.9193 99.7495C81.8393 100.037 81.7913 100.413 81.7753 100.877V111.149C81.7753 111.581 81.7673 111.973 81.7513 112.325C81.7513 112.661 81.7353 112.933 81.7033 113.141C81.9753 113.109 82.2713 113.093 82.5913 113.093C82.9273 113.077 83.2153 113.061 83.4553 113.045V114.365H77.5513ZM96.0669 113.309C96.5949 113.277 96.9709 113.165 97.1949 112.973C97.4349 112.781 97.5869 112.493 97.6509 112.109C97.7149 111.725 97.7469 111.237 97.7469 110.645V100.661C97.7469 100.309 97.7549 99.9735 97.7709 99.6535C97.7869 99.3175 97.8029 99.0295 97.8189 98.7895C97.5469 98.8055 97.2509 98.8215 96.9309 98.8375C96.6109 98.8535 96.3229 98.8695 96.0669 98.8855V97.5655C97.0109 97.5495 97.9709 97.5415 98.9469 97.5415C99.9229 97.5255 100.915 97.5175 101.923 97.5175C103.427 97.5175 104.699 97.7015 105.739 98.0695C106.795 98.4215 107.603 98.9655 108.163 99.7015C108.739 100.421 109.035 101.333 109.051 102.437C109.067 103.061 108.955 103.709 108.715 104.381C108.475 105.037 108.067 105.653 107.491 106.229C106.915 106.789 106.131 107.245 105.139 107.597C104.163 107.949 102.931 108.125 101.443 108.125C101.283 108.141 101.099 108.149 100.891 108.149C100.699 108.149 100.499 108.141 100.291 108.125V111.149C100.291 111.581 100.283 111.973 100.267 112.325C100.267 112.661 100.251 112.933 100.219 113.141C100.443 113.125 100.683 113.109 100.939 113.093C101.195 113.077 101.443 113.069 101.683 113.069C101.939 113.053 102.171 113.037 102.379 113.021V114.365H96.0669V113.309ZM100.291 106.853C100.563 106.885 100.795 106.909 100.987 106.925C101.195 106.925 101.435 106.925 101.707 106.925C102.603 106.925 103.395 106.757 104.083 106.421C104.771 106.085 105.307 105.597 105.691 104.957C106.075 104.317 106.267 103.557 106.267 102.677C106.267 101.909 106.147 101.269 105.907 100.757C105.683 100.229 105.363 99.8215 104.947 99.5335C104.547 99.2295 104.083 99.0135 103.555 98.8855C103.027 98.7575 102.467 98.6935 101.875 98.6935C101.395 98.6935 101.043 98.7895 100.819 98.9815C100.595 99.1735 100.451 99.4535 100.387 99.8215C100.323 100.189 100.291 100.661 100.291 101.237V106.853ZM116.783 98.6215C116.271 98.6375 115.895 98.7495 115.655 98.9575C115.415 99.1495 115.263 99.4375 115.199 99.8215C115.135 100.189 115.103 100.677 115.103 101.285V111.149C115.103 111.581 115.095 111.973 115.079 112.325C115.079 112.661 115.063 112.933 115.031 113.141C115.303 113.109 115.599 113.093 115.919 113.093C116.255 113.077 116.543 113.061 116.783 113.045V114.365H110.879V113.309C111.407 113.277 111.783 113.165 112.007 112.973C112.247 112.781 112.399 112.493 112.463 112.109C112.527 111.725 112.559 111.237 112.559 110.645V100.661C112.559 100.309 112.567 99.9735 112.583 99.6535C112.599 99.3175 112.615 99.0295 112.631 98.7895C112.359 98.8055 112.063 98.8215 111.743 98.8375C111.423 98.8535 111.135 98.8695 110.879 98.8855V97.5655H116.783V98.6215ZM127.511 98.6215C126.999 98.6375 126.623 98.7495 126.383 98.9575C126.143 99.1495 125.991 99.4375 125.927 99.8215C125.879 100.189 125.855 100.677 125.855 101.285V111.149C125.855 111.581 125.847 111.973 125.831 112.325C125.815 112.661 125.791 112.933 125.759 113.141C126.047 113.109 126.351 113.093 126.671 113.093C126.991 113.077 127.271 113.061 127.511 113.045V114.365H121.631V113.309C122.159 113.277 122.535 113.165 122.759 112.973C122.999 112.781 123.143 112.493 123.191 112.109C123.255 111.725 123.287 111.237 123.287 110.645V100.661C123.287 100.309 123.295 99.9735 123.311 99.6535C123.343 99.3175 123.367 99.0295 123.383 98.7895C123.095 98.8055 122.791 98.8215 122.471 98.8375C122.151 98.8535 121.871 98.8695 121.631 98.8855V97.5655H127.511V98.6215ZM124.319 98.5975L125.135 99.4135L113.831 113.309L112.919 112.421L124.319 98.5975ZM138.979 114.605C138.323 113.101 137.667 111.597 137.011 110.093C136.355 108.589 135.707 107.077 135.067 105.557C134.875 105.109 134.675 104.621 134.467 104.093C134.259 103.565 134.051 103.005 133.843 102.413C133.635 101.821 133.435 101.221 133.243 100.613C133.243 101.029 133.243 101.429 133.243 101.813C133.243 102.197 133.243 102.565 133.243 102.917C133.227 103.413 133.211 103.997 133.195 104.669C133.179 105.325 133.155 106.021 133.123 106.757C133.107 107.493 133.091 108.229 133.075 108.965C133.075 109.685 133.067 110.381 133.051 111.053C133.051 111.437 133.043 111.813 133.027 112.181C133.011 112.549 132.987 112.869 132.955 113.141C133.243 113.109 133.547 113.093 133.867 113.093C134.203 113.077 134.499 113.061 134.755 113.045V114.365H129.883V113.309C130.331 113.293 130.675 113.205 130.915 113.045C131.155 112.885 131.315 112.645 131.395 112.325C131.491 112.005 131.547 111.613 131.563 111.149L131.899 100.781C131.915 100.429 131.931 100.077 131.947 99.7255C131.963 99.3735 131.979 99.0615 131.995 98.7895C131.707 98.8055 131.403 98.8215 131.083 98.8375C130.763 98.8375 130.483 98.8455 130.243 98.8615V97.5655H134.443L138.403 107.021C138.595 107.453 138.787 107.917 138.979 108.413C139.171 108.893 139.363 109.373 139.555 109.853C139.763 110.317 139.947 110.757 140.107 111.173H140.155C140.331 110.693 140.531 110.165 140.755 109.589C140.979 109.013 141.171 108.501 141.331 108.053C142.019 106.325 142.715 104.597 143.419 102.869C144.139 101.141 144.843 99.3735 145.531 97.5655H149.755V98.6215C149.371 98.6215 149.043 98.6935 148.771 98.8375C148.515 98.9655 148.323 99.2055 148.195 99.5575C148.083 99.9095 148.043 100.413 148.075 101.069L148.603 111.413C148.635 111.733 148.643 112.045 148.627 112.349C148.627 112.653 148.619 112.909 148.603 113.117C148.891 113.101 149.195 113.093 149.515 113.093C149.851 113.077 150.139 113.061 150.379 113.045V114.365H144.571V113.309C145.035 113.293 145.387 113.197 145.627 113.021C145.883 112.845 146.051 112.573 146.131 112.205C146.211 111.821 146.235 111.325 146.203 110.717L145.819 103.733C145.803 103.493 145.787 103.213 145.771 102.893C145.755 102.557 145.731 102.213 145.699 101.861C145.683 101.493 145.667 101.141 145.651 100.805C145.603 100.917 145.555 101.037 145.507 101.165C145.459 101.277 145.411 101.405 145.363 101.549L140.203 114.605H138.979ZM151.184 114.365V113.285C151.664 113.285 152.032 113.157 152.288 112.901C152.544 112.645 152.76 112.301 152.936 111.869C153.112 111.421 153.304 110.925 153.512 110.381L158.36 97.1095H159.32L164.576 110.573C164.704 110.877 164.848 111.293 165.008 111.821C165.168 112.333 165.24 112.773 165.224 113.141C165.496 113.109 165.76 113.093 166.016 113.093C166.288 113.077 166.544 113.061 166.784 113.045V114.365H160.952V113.309C161.512 113.293 161.88 113.173 162.056 112.949C162.248 112.709 162.32 112.421 162.272 112.085C162.24 111.749 162.16 111.413 162.032 111.077L161.312 109.133L155.432 109.277L154.736 111.365C154.64 111.685 154.536 111.989 154.424 112.277C154.312 112.565 154.2 112.845 154.088 113.117C154.376 113.085 154.68 113.069 155 113.069C155.336 113.053 155.632 113.037 155.888 113.021V114.365H151.184ZM155.864 107.981H160.904L159.392 103.925C159.2 103.397 159.016 102.877 158.84 102.365C158.664 101.837 158.504 101.333 158.36 100.853H158.336C158.208 101.253 158.064 101.693 157.904 102.173C157.744 102.653 157.56 103.173 157.352 103.733L155.864 107.981Z" fill="#289976"/>
</svg>
