<svg width="90" height="90" viewBox="0 0 90 90" fill="none" xmlns="http://www.w3.org/2000/svg">
<path d="M90 45C90 69.8528 69.8528 90 45 90C20.1472 90 0 69.8528 0 45C0 20.1472 20.1472 0 45 0C69.8528 0 90 20.1472 90 45Z" fill="#FFD178" fill-opacity="0.6"/>
<path d="M17 79.9998V73.959C17 66.4169 24.3799 60.3672 31.7368 60.3672C40.5789 67.9182 49.4211 67.9182 58.2632 60.3672C65.6229 60.3672 73 66.4169 73 73.959V79.9998" fill="#92D3F5"/>
<path d="M30.2658 46.7755C24.3711 46.7755 24.3711 37.7143 24.3711 27.1429C24.3711 16.5714 30.2658 6 45.0027 6C59.7395 6 65.6343 16.5714 65.6343 27.1429C65.6343 37.7143 65.6343 46.7755 59.7395 46.7755" fill="#F1B31C"/>
<path d="M28.6953 34.694C28.6953 48.2858 35.9702 55.8368 44.9058 55.8368C53.6544 55.8368 61.21 48.2858 61.21 34.694C61.21 30.1633 59.7363 27.1422 59.7363 27.1422C55.3152 22.6123 49.4205 15.0605 49.4205 15.0605C43.5257 19.5912 39.1047 24.1218 30.2626 25.6327C30.2626 25.6327 28.6953 27.1422 28.6953 34.694Z" fill="#FCEA2B"/>
<path d="M30.26 46.7755C24.3652 46.7755 24.3652 37.7143 24.3652 27.1429C24.3652 16.5714 30.26 6 44.9968 6C59.7337 6 65.6284 16.5714 65.6284 27.1429C65.6284 37.7143 65.6284 46.7755 59.7337 46.7755" stroke="black" stroke-width="2" stroke-linecap="round" stroke-linejoin="round"/>
<path d="M17 78.4896V73.959C17 66.4169 24.3799 60.3672 31.7368 60.3672C40.5789 67.9182 49.4211 67.9182 58.2632 60.3672C65.6229 60.3672 73 66.4169 73 73.959V78.4896" stroke="black" stroke-width="2" stroke-linecap="round" stroke-linejoin="round"/>
<path d="M53.065 32.8815C53.065 34.3827 51.8773 35.5998 50.4124 35.5998C48.9476 35.5998 47.7598 34.3827 47.7598 32.8815C47.7598 31.3802 48.9476 30.1631 50.4124 30.1631C51.8773 30.1631 53.065 31.3802 53.065 32.8815Z" fill="black"/>
<path d="M41.2779 32.8815C41.2779 34.3827 40.0902 35.5998 38.6253 35.5998C37.1605 35.5998 35.9727 34.3827 35.9727 32.8815C35.9727 31.3802 37.1605 30.1631 38.6253 30.1631C40.0902 30.1631 41.2779 31.3802 41.2779 32.8815Z" fill="black"/>
<path d="M28.6953 34.694C28.6953 48.2858 35.9702 55.8368 44.9058 55.8368C53.6544 55.8368 61.21 48.2858 61.21 34.694C61.21 30.1633 59.7363 27.1422 59.7363 27.1422C55.3152 22.6123 49.4205 15.0605 49.4205 15.0605C43.5257 19.5912 39.1047 24.1218 30.2626 25.6327C30.2626 25.6327 28.6953 27.1422 28.6953 34.694Z" stroke="black" stroke-width="2" stroke-linejoin="round"/>
<path d="M40.5801 45.2651C43.4368 46.6825 46.4748 46.7753 49.4222 45.2651" stroke="black" stroke-width="2" stroke-linecap="round" stroke-linejoin="round"/>
</svg>
