<svg width="46" height="45" viewBox="0 0 46 45" fill="none" xmlns="http://www.w3.org/2000/svg">
<path d="M23 0C35.4268 0 45.5 10.0732 45.5 22.5C45.5 34.9267 35.4268 45 23 45C19.0238 45.0064 15.1175 43.9541 11.6825 41.9512L0.509032 45L3.55103 33.822C1.54649 30.3859 0.493389 26.478 0.500031 22.5C0.500031 10.0732 10.5733 0 23 0ZM15.332 11.925L14.882 11.943C14.5907 11.9607 14.306 12.0373 14.045 12.168C13.8009 12.3062 13.5781 12.479 13.3835 12.681C13.1135 12.9352 12.9605 13.1557 12.7963 13.3695C11.964 14.4515 11.516 15.7799 11.5228 17.145C11.5273 18.2475 11.8153 19.3207 12.2653 20.3242C13.1855 22.3537 14.6998 24.5025 16.6978 26.4937C17.1793 26.973 17.6518 27.4545 18.1603 27.9022C20.6429 30.088 23.6013 31.6643 26.8003 32.5057L28.0783 32.7015C28.4945 32.724 28.9108 32.6925 29.3293 32.6722C29.9845 32.6384 30.6244 32.461 31.2035 32.1525C31.4982 32.0007 31.7857 31.8355 32.0653 31.6575C32.0653 31.6575 32.162 31.5945 32.3465 31.455C32.6503 31.23 32.837 31.0702 33.089 30.807C33.2758 30.6135 33.4378 30.3862 33.5615 30.1275C33.737 29.7607 33.9125 29.061 33.9845 28.4782C34.0385 28.0327 34.0228 27.7897 34.016 27.639C34.007 27.3982 33.8068 27.1485 33.5885 27.0427L32.279 26.4555C32.279 26.4555 30.3215 25.6027 29.1245 25.0582C28.9993 25.0035 28.865 24.9723 28.7285 24.966C28.5746 24.9502 28.419 24.9675 28.2723 25.0168C28.1256 25.0661 27.9912 25.1462 27.878 25.2517C27.8668 25.2472 27.716 25.3755 26.0893 27.3465C25.9959 27.4719 25.8673 27.5668 25.7198 27.6189C25.5724 27.6709 25.4127 27.678 25.2613 27.639C25.1147 27.5997 24.9711 27.5501 24.8315 27.4905C24.5525 27.3735 24.4558 27.3285 24.2645 27.2475C22.9732 26.684 21.7776 25.9226 20.7208 24.9907C20.4373 24.7432 20.174 24.4732 19.904 24.2122C19.0188 23.3645 18.2474 22.4055 17.609 21.3592L17.4763 21.1455C17.3809 21.0019 17.3038 20.8469 17.2468 20.6842C17.1613 20.3535 17.384 20.088 17.384 20.088C17.384 20.088 17.9308 19.4895 18.185 19.1655C18.4325 18.8505 18.6418 18.5445 18.7768 18.3262C19.0423 17.8987 19.1255 17.46 18.986 17.1202C18.356 15.5812 17.7035 14.049 17.033 12.528C16.9003 12.2265 16.5065 12.0105 16.1488 11.9677C16.0273 11.9542 15.9058 11.9407 15.7843 11.9317C15.4821 11.9167 15.1793 11.9197 14.8775 11.9407L15.332 11.925Z" fill="white"/>
</svg>
