<svg width="46" height="45" viewBox="0 0 46 45" fill="none" xmlns="http://www.w3.org/2000/svg">
<path d="M23 0C10.5734 0 0.5 10.0734 0.5 22.5C0.5 34.9266 10.5734 45 23 45C35.4266 45 45.5 34.9266 45.5 22.5C45.5 10.0734 35.4266 0 23 0ZM31.6531 25.3852C31.6531 25.3852 33.643 27.3492 34.1328 28.2609C34.1469 28.2797 34.1539 28.2984 34.1586 28.3078C34.3578 28.643 34.4047 28.9031 34.3063 29.0977C34.1422 29.4211 33.5797 29.5805 33.3875 29.5945H29.8719C29.6281 29.5945 29.1172 29.5313 28.4984 29.1047C28.0227 28.7719 27.5539 28.2258 27.0969 27.6938C26.4148 26.9016 25.8242 26.2172 25.2289 26.2172C25.1533 26.2171 25.0781 26.2289 25.0063 26.2523C24.5562 26.3977 23.9797 27.0398 23.9797 28.7508C23.9797 29.2852 23.5578 29.5922 23.2602 29.5922H21.65C21.1016 29.5922 18.2445 29.4 15.7133 26.7305C12.6148 23.4609 9.82578 16.9031 9.80234 16.8422C9.62656 16.418 9.98984 16.1906 10.3859 16.1906H13.9367C14.4102 16.1906 14.5648 16.4789 14.6727 16.7344C14.7992 17.032 15.2633 18.2156 16.025 19.5469C17.2602 21.7172 18.0172 22.5984 18.6242 22.5984C18.738 22.5971 18.8498 22.5681 18.95 22.5141C19.7422 22.0734 19.5945 19.2492 19.5594 18.6633C19.5594 18.5531 19.557 17.4 19.1516 16.8469C18.8609 16.4461 18.3664 16.2937 18.0664 16.2375C18.1878 16.0699 18.3478 15.9341 18.5328 15.8414C19.0766 15.5695 20.0563 15.5297 21.0289 15.5297H21.5703C22.625 15.5437 22.8969 15.6117 23.2789 15.7078C24.0523 15.893 24.0688 16.3922 24.0008 18.1008C23.9797 18.5859 23.9586 19.1344 23.9586 19.7813C23.9586 19.9219 23.9516 20.0719 23.9516 20.2313C23.9281 21.1008 23.9 22.0875 24.5141 22.493C24.5942 22.5432 24.6867 22.57 24.7813 22.5703C24.9945 22.5703 25.6367 22.5703 27.3758 19.5867C27.9121 18.6264 28.3782 17.6285 28.7703 16.6008C28.8055 16.5398 28.9086 16.3523 29.0305 16.2797C29.1204 16.2338 29.2201 16.2105 29.3211 16.2117H33.4953C33.95 16.2117 34.2617 16.2797 34.3203 16.4555C34.4234 16.7344 34.3016 17.5852 32.3961 20.1656L31.5453 21.2883C29.818 23.5523 29.818 23.6672 31.6531 25.3852Z" fill="white"/>
</svg>
